<svg xmlns="http://www.w3.org/2000/svg" xmlns:xlink="http://www.w3.org/1999/xlink" width="12px" height="22px">
	<path fill-rule="evenodd" fill="rgb(21, 21, 21)" d="M0.306,15.722 L5.290,20.724 C5.679,21.115 6.309,21.115 6.699,20.724 L11.682,15.722 C11.967,15.436 12.53,15.6 11.898,14.632 C11.744,14.257 11.380,14.14 10.977,14.14 L6.991,14.14 L6.991,1.10 C6.991,0.457 6.545,0.10 5.994,0.10 C5.443,0.10 4.997,0.457 4.997,1.10 L4.997,14.14 L1.11,14.14 C0.608,14.14 0.244,14.257 0.90,14.632 C0.63,15.6 0.21,15.436 0.306,15.722 ZM8.571,16.15 L5.994,18.602 L3.417,16.15 L8.571,16.15 Z" />
</svg>
