<?xml version="1.0" encoding="utf-8"?><svg viewBox="0 0 502.66 502.66" xmlns="http://www.w3.org/2000/svg" xmlns:xlink="http://www.w3.org/1999/xlink"><style>:root>svg{display:none}:root>svg:target{display:block}</style><svg viewBox="0 0 30 23" id="cart" xmlns="http://www.w3.org/2000/svg"><path d="M29.999 0l-.929 2.5h-2.41l-4.342 15H5.767L0 3.75h21.015l-.705 2.5H3.759L7.43 15h13.035l4.29-15H30zM10.624 18.75a1.876 1.876 0 10.001 3.751 1.876 1.876 0 00-.001-3.751zM19.249 10l-2.375 8.75a1.875 1.875 0 100 3.75 1.875 1.875 0 000-3.75L19.249 10z"/></svg><svg viewBox="0 0 502.664 502.664" id="icon" xmlns="http://www.w3.org/2000/svg"><path d="M153.821 358.226L0 274.337v-46.463l153.821-83.414v54.574L46.636 250.523l107.185 53.431v54.272zm26.273 29.358L282.103 115.08h32.227L212.084 387.584h-31.99zm168.749-29.358v-54.272l107.164-52.999-107.164-52.59v-53.927l153.821 83.522v46.183l-153.821 84.083z"/></svg><svg viewBox="0 0 30 30" id="search" xmlns="http://www.w3.org/2000/svg"><path d="M13 3C7.489 3 3 7.489 3 13s4.489 10 10 10a9.947 9.947 0 006.322-2.264l5.971 5.971a1 1 0 101.414-1.414l-5.97-5.97A9.947 9.947 0 0023 13c0-5.511-4.489-10-10-10zm0 2c4.43 0 8 3.57 8 8s-3.57 8-8 8-8-3.57-8-8 3.57-8 8-8z"/></svg><svg viewBox="0 0 256 256" id="user" xmlns="http://www.w3.org/2000/svg"><path d="M243.152 254.036H226.16c0-54.125-44.035-98.16-98.16-98.16s-98.157 44.035-98.157 98.16H12.848c0-63.497 51.658-115.152 115.152-115.152 63.497 0 115.152 51.655 115.152 115.152zM128 132.168c-35.898 0-65.102-29.204-65.102-65.102S92.102 1.964 128 1.964c35.895 0 65.102 29.204 65.102 65.102S163.895 132.168 128 132.168zm0-113.212c-26.526 0-48.107 21.58-48.107 48.107 0 26.526 21.58 48.11 48.107 48.11 26.526 0 48.107-21.58 48.107-48.11 0-26.524-21.58-48.107-48.107-48.107z"/></svg></svg>