<?xml version="1.0" encoding="utf-8"?><svg viewBox="0 0 512 512" xmlns="http://www.w3.org/2000/svg" xmlns:xlink="http://www.w3.org/1999/xlink"><style>:root>svg{display:none}:root>svg:target{display:block}</style><svg viewBox="0 0 284.935 284.936" id="angle-right" xmlns="http://www.w3.org/2000/svg"><path d="M222.701 135.9L89.652 2.857C87.748.955 85.557 0 83.084 0c-2.474 0-4.664.955-6.567 2.857L62.244 17.133c-1.906 1.903-2.855 4.089-2.855 6.567 0 2.478.949 4.664 2.855 6.567l112.204 112.204L62.244 254.677c-1.906 1.903-2.855 4.093-2.855 6.564 0 2.477.949 4.667 2.855 6.57l14.274 14.271c1.903 1.905 4.093 2.854 6.567 2.854 2.473 0 4.663-.951 6.567-2.854l133.042-133.044c1.902-1.902 2.854-4.093 2.854-6.567s-.945-4.664-2.847-6.571z"/></svg><svg viewBox="0 0 12 21" id="arrow-down" xmlns="http://www.w3.org/2000/svg"><path d="M.09 14.632a.995.995 0 01.922-.618h3.986V1.011a.998.998 0 011.993 0v13.003h3.987a1.002 1.002 0 01.705 1.708l-4.984 5.003a.994.994 0 01-1.409 0L.307 15.722a1.002 1.002 0 01-.216-1.09zm3.327 1.383l2.578 2.588 2.577-2.588z"/></svg><svg viewBox="0 0 30 23" id="cart" xmlns="http://www.w3.org/2000/svg"><path d="M29.999 0l-.929 2.5h-2.41l-4.342 15H5.767L0 3.75h21.015l-.705 2.5H3.759L7.43 15h13.035l4.29-15H30zM10.624 18.75a1.876 1.876 0 10.001 3.751 1.876 1.876 0 00-.001-3.751zM19.249 10l-2.375 8.75a1.875 1.875 0 100 3.75 1.875 1.875 0 000-3.75L19.249 10z"/></svg><svg viewBox="0 0 329.269 329" id="close" xmlns="http://www.w3.org/2000/svg"><path d="M194.8 164.77L323.013 36.555c8.343-8.34 8.343-21.825 0-30.164-8.34-8.34-21.825-8.34-30.164 0L164.633 134.605 36.422 6.391c-8.344-8.34-21.824-8.34-30.164 0-8.344 8.34-8.344 21.824 0 30.164l128.21 128.215L6.259 292.984c-8.344 8.34-8.344 21.825 0 30.164a21.266 21.266 0 0015.082 6.25c5.46 0 10.922-2.09 15.082-6.25l128.21-128.214 128.216 128.214a21.273 21.273 0 0015.082 6.25c5.46 0 10.922-2.09 15.082-6.25 8.343-8.34 8.343-21.824 0-30.164zm0 0"/></svg><svg viewBox="0 0 30 31" id="facebook" xmlns="http://www.w3.org/2000/svg"><g clip-path="url(#ea)"><path d="M17.419 30.278zm.3-.051l-.18.03.18-.03zm-1.012.15zm.288-.036zm1.132-.196zm1.013-.253l-.127.036.127-.036zm-.306.085l-.14.036.14-.037zm-.401.1c-.049.012-.098.022-.148.033.05-.01.099-.021.148-.033zm-2.172.343zM30 15.41C30 7.09 23.283.345 15 .345 6.717.345 0 7.09 0 15.409c0 8.32 6.717 15.065 15 15.065l.264-.003V18.744H12.04v-3.772h3.223v-2.776c0-3.22 1.956-4.971 4.816-4.971 1.369 0 2.546.102 2.889.148v3.364h-1.972c-1.555 0-1.857.743-1.857 1.832v2.403h3.72l-.485 3.772H19.14v11.148A15.063 15.063 0 0030 15.41zM15.991 30.44zm-.478.025z"/></g><defs><clipPath id="ea"><path transform="translate(0 .345)" d="M0 0h30v30.129H0z"/></clipPath></defs></svg><svg viewBox="-5 0 394 394" id="filter" xmlns="http://www.w3.org/2000/svg"><path d="M367.82 0H16.56A16.502 16.502 0 001.848 8.96a16.732 16.732 0 001.3 17.415L131.836 207.66c.043.063.09.121.133.184a36.751 36.751 0 017.219 21.816v147.8a16.448 16.448 0 004.773 11.688A16.45 16.45 0 00155.617 394a16.94 16.94 0 006.48-1.3l72.313-27.571c6.477-1.98 10.778-8.094 10.778-15.453V229.66a36.774 36.774 0 017.214-21.816c.043-.063.09-.121.133-.184L381.227 26.371a16.717 16.717 0 001.3-17.406A16.492 16.492 0 00367.82 0zm0 0"/></svg><svg viewBox="0 0 16 16" id="hide" xmlns="http://www.w3.org/2000/svg"><path d="M13.854 2.146a.5.5 0 010 .708l-11 11a.5.5 0 01-.708-.708l11-11a.5.5 0 01.708 0z"/><path d="M2.146 2.146a.5.5 0 000 .708l11 11a.5.5 0 00.708-.708l-11-11a.5.5 0 00-.708 0z"/></svg><svg viewBox="0 0 502.664 502.664" id="icon" xmlns="http://www.w3.org/2000/svg"><path d="M153.821 358.226L0 274.337v-46.463l153.821-83.414v54.574L46.636 250.523l107.185 53.431v54.272zm26.273 29.358L282.103 115.08h32.227L212.084 387.584h-31.99zm168.749-29.358v-54.272l107.164-52.999-107.164-52.59v-53.927l153.821 83.522v46.183l-153.821 84.083z"/></svg><svg viewBox="0 0 512 512" id="icon-arrow-left" xmlns="http://www.w3.org/2000/svg"><path d="M492 236H68.442l70.164-69.824c7.829-7.792 7.859-20.455.067-28.284-7.792-7.83-20.456-7.859-28.285-.068l-104.504 104-.018.019c-7.809 7.792-7.834 20.496-.002 28.314l.018.019 104.504 104c7.828 7.79 20.492 7.763 28.285-.068 7.792-7.829 7.762-20.492-.067-28.284L68.442 276H492c11.046 0 20-8.954 20-20s-8.954-20-20-20z"/></svg><svg viewBox="0 0 512 512" id="icon-arrow-right" xmlns="http://www.w3.org/2000/svg"><path d="M506.134 241.843l-.018-.019-104.504-104c-7.829-7.791-20.492-7.762-28.285.068-7.792 7.829-7.762 20.492.067 28.284L443.558 236H20c-11.046 0-20 8.954-20 20s8.954 20 20 20h423.557l-70.162 69.824c-7.829 7.792-7.859 20.455-.067 28.284 7.793 7.831 20.457 7.858 28.285.068l104.504-104 .018-.019c7.833-7.818 7.808-20.522-.001-28.314z"/></svg><svg viewBox="0 0 30 31" id="instagram" xmlns="http://www.w3.org/2000/svg"><g clip-path="url(#ka)"><path d="M15.005 7.674c-4.254 0-7.698 3.462-7.698 7.73 0 4.273 3.448 7.731 7.698 7.731 4.254 0 7.697-3.462 7.697-7.73 0-4.273-3.447-7.731-7.697-7.731zm0 12.748c-2.761 0-4.996-2.246-4.996-5.018 0-2.771 2.236-5.017 4.996-5.017 2.76 0 4.996 2.246 4.996 5.018.001 2.771-2.235 5.017-4.996 5.017z"/><path d="M21.185.44c-2.76-.129-9.596-.122-12.359 0-2.427.115-4.569.704-6.295 2.437C-.354 5.775.015 9.68.015 15.405c0 5.86-.325 9.674 2.516 12.528 2.896 2.907 6.84 2.527 12.474 2.527 5.78 0 7.775.003 9.819-.791 2.778-1.084 4.876-3.578 5.08-8.059.13-2.773.123-9.637 0-12.412-.247-5.289-3.073-8.496-8.72-8.757zm4.369 25.575c-1.892 1.9-4.515 1.73-10.585 1.73-6.25 0-8.757.093-10.585-1.748-2.107-2.106-1.725-5.486-1.725-10.612 0-6.936-.71-11.931 6.222-12.288 1.593-.056 2.061-.075 6.07-.075l.056.038c6.662 0 11.888-.701 12.202 6.259.07 1.588.087 2.065.087 6.085-.001 6.204.116 8.736-1.742 10.611z"/><path d="M23.008 9.175c.993 0 1.798-.809 1.798-1.806 0-.998-.805-1.807-1.799-1.807-.993 0-1.798.809-1.798 1.807 0 .997.805 1.806 1.799 1.806z"/></g><defs><clipPath id="ka"><path transform="translate(0 .345)" d="M0 0h30v30.129H0z"/></clipPath></defs></svg><svg viewBox="0 0 12 2" id="minus" xmlns="http://www.w3.org/2000/svg"><path d="M0 0h12v2H0z"/></svg><svg viewBox="0 0 12 12" id="plus" xmlns="http://www.w3.org/2000/svg"><path d="M12 7H7v5H5V7H0V5h5V0h2v5h5z"/></svg><svg viewBox="0 0 30 30" id="search" xmlns="http://www.w3.org/2000/svg"><path d="M13 3C7.489 3 3 7.489 3 13s4.489 10 10 10a9.947 9.947 0 006.322-2.264l5.971 5.971a1 1 0 101.414-1.414l-5.97-5.97A9.947 9.947 0 0023 13c0-5.511-4.489-10-10-10zm0 2c4.43 0 8 3.57 8 8s-3.57 8-8 8-8-3.57-8-8 3.57-8 8-8z"/></svg><svg viewBox="0 0 12 21" id="to-top" xmlns="http://www.w3.org/2000/svg"><path d="M11.91 6.367a.996.996 0 01-.922.618H7.002v13.004a.998.998 0 11-1.993 0V6.985H1.022a1.002 1.002 0 01-.705-1.708L5.302.275a.993.993 0 011.409 0l4.983 5.002c.285.286.37.716.216 1.09zM8.581 4.984L6.005 2.396 3.428 4.984z"/></svg><svg viewBox="0 0 256 256" id="user" xmlns="http://www.w3.org/2000/svg"><path d="M243.152 254.036H226.16c0-54.125-44.035-98.16-98.16-98.16s-98.157 44.035-98.157 98.16H12.848c0-63.497 51.658-115.152 115.152-115.152 63.497 0 115.152 51.655 115.152 115.152zM128 132.168c-35.898 0-65.102-29.204-65.102-65.102S92.102 1.964 128 1.964c35.895 0 65.102 29.204 65.102 65.102S163.895 132.168 128 132.168zm0-113.212c-26.526 0-48.107 21.58-48.107 48.107 0 26.526 21.58 48.11 48.107 48.11 26.526 0 48.107-21.58 48.107-48.11 0-26.524-21.58-48.107-48.107-48.107z"/></svg><svg viewBox="0 0 30 31" id="vk" xmlns="http://www.w3.org/2000/svg"><path d="M24.894 16.7c-.485-.615-.346-.889 0-1.439.006-.006 4.01-5.562 4.422-7.447h.003c.205-.688 0-1.192-.991-1.192h-3.28c-.835 0-1.22.433-1.427.917 0 0-1.67 4.015-4.032 6.618-.763.752-1.115.993-1.531.993-.206 0-.524-.241-.524-.928V7.813c0-.823-.234-1.191-.925-1.191H11.45c-.524 0-.835.384-.835.742 0 .78 1.181.96 1.304 3.157v4.767c0 1.044-.189 1.236-.607 1.236-1.116 0-3.822-4.03-5.426-8.644-.323-.895-.64-1.257-1.48-1.257H1.124C.189 6.623 0 7.056 0 7.541c0 .856 1.115 5.113 5.185 10.737 2.713 3.839 6.532 5.92 10.008 5.92 2.088 0 2.343-.463 2.343-1.257 0-3.669-.189-4.015.858-4.015.485 0 1.32.24 3.27 2.093 2.228 2.195 2.595 3.178 3.842 3.178h3.28c.935 0 1.409-.462 1.136-1.373-.623-1.917-4.838-5.86-5.028-6.124z"/></svg></svg>